<?xml version="1.0" encoding="UTF-8" standalone="no"?>
<svg
   xmlns:dc="http://purl.org/dc/elements/1.1/"
   xmlns:cc="http://creativecommons.org/ns#"
   xmlns:rdf="http://www.w3.org/1999/02/22-rdf-syntax-ns#"
   xmlns:svg="http://www.w3.org/2000/svg"
   xmlns="http://www.w3.org/2000/svg"
   xmlns:sodipodi="http://sodipodi.sourceforge.net/DTD/sodipodi-0.dtd"
   xmlns:inkscape="http://www.inkscape.org/namespaces/inkscape"
   width="172.14203mm"
   height="71.773064mm"
   viewBox="0 0 172.14203 71.773064"
   version="1.1"
   id="svg8"
   inkscape:version="1.0.2 (e86c870879, 2021-01-15)"
   sodipodi:docname="logo.svg"
   inkscape:export-filename="/tmp/triumphum-logo.png"
   inkscape:export-xdpi="117.2327"
   inkscape:export-ydpi="117.2327">
  <defs
     id="defs2">
    <clipPath
       clipPathUnits="userSpaceOnUse"
       id="clipPath4477">
      <path
         id="path4479"
         style="font-style:normal;font-variant:normal;font-weight:normal;font-stretch:normal;font-size:29.7759px;line-height:1.25;font-family:'Textura Libera';-inkscape-font-specification:'Textura Libera';text-align:center;letter-spacing:0px;word-spacing:0px;text-anchor:middle;fill:#f639f6;fill-opacity:1;stroke-width:0.58614"
         d="m 4711.0742,419.63477 v 0.0937 c 0,0 -1.0117,2.13003 -1.0117,4.14062 0,1.94842 0.9335,3.96826 0.9922,4.09375 h 0.035 13.1797 v -8.32812 z"
         sodipodi:nodetypes="ccsccccc" />
    </clipPath>
    <filter
       inkscape:collect="always"
       style="color-interpolation-filters:sRGB"
       id="filter4467"
       x="-1.4573411"
       width="3.9146821"
       y="-0.42293119"
       height="1.8458624">
      <feGaussianBlur
         inkscape:collect="always"
         stdDeviation="2.1933115"
         id="feGaussianBlur4469" />
    </filter>
    <clipPath
       clipPathUnits="userSpaceOnUse"
       id="clipPath1249">
      <path
         id="path1251"
         style="opacity:1;fill:#1fb9e4;fill-opacity:1;stroke:none;stroke-width:0.529167;stroke-linecap:round;stroke-linejoin:bevel;stroke-opacity:1;paint-order:markers stroke fill;stop-color:#000000"
         d="M -40.291617,-42.285637 V 11.886766 H 171.83885 v -54.172403 z m 52.329107,20.37085 3.857646,3.859196 -5.955194,5.955192 0.795819,0.795817 -0.47439,0.273885 -0.8821181,-0.882117 -0.1875843,-0.187585 5.9551914,-5.955192 -3.10937,-3.110921 z m -29.859161,1.407149 2.34146,2.343009 v 6.173784 l -2.35076,2.3507606 -0.854212,0.1064535 2.675805,-2.6758051 v -5.736601 l -2.335257,-2.335258 z m 28.668017,0.797884 2.845306,2.845821 -3.9392943,3.937228 -0.4511357,0.451651 0.2955899,-0.678511 3.3470821,-3.710368 -2.097548,-2.097546 z m -30.027623,0.889868 c 0.138507,0.08451 0.278995,0.173067 0.415996,0.266651 0.55467,0.378897 1.082104,0.903711 1.082104,1.689302 v 6.064229 l -1.286227,1.286227 -0.01654,-0.733289 0.773594,-0.773596 v -5.843571 c 0,-0.554325 -0.349258,-0.908952 -0.851625,-1.25212 -0.033,-0.02255 -0.06921,-0.0439 -0.102839,-0.06615 z m 50.599496,0.666626 v 7.541142 c 0,0.124755 0.08644,0.225641 0.263033,0.351916 l -0.612884,0.145211 c -0.104232,-0.135322 -0.179316,-0.298231 -0.179316,-0.497127 v -7.487398 z m -2.205035,0.222209 v 8.2547931 l -0.527097,0.1245401 v -8.2811482 l 0.235127,-0.06873 z m -23.8497055,0.03049 v 5.909717 l -0.4604385,0.460437 -0.7596425,0.01188 0.6909144,-0.690914 v -5.637898 z m -18.2402295,0.05684 0.738971,0.01085 -1.078487,1.078488 v 1.566313 l 0.390676,0.390674 5.5645155,2.218469 v 1.434537 l -0.5296826,-0.167431 v -0.907439 l -5.3319729,-2.127002 -0.622703,-0.623217 v -2.005563 z m 1.334283,0.01964 0.529167,0.0083 v 1.069185 l 5.3340422,2.127001 0.6211517,0.622702 v 2.006079 l -1.1725381,1.172538 -0.5684414,-0.179834 1.2118128,-1.211295 v -1.56838 l -0.3886067,-0.390674 -5.5665875,-2.218986 z m 14.4973069,0.165882 c 0.127127,0.230983 0.2056738,0.493106 0.2056738,0.794267 v 5.360396 l -0.5291667,0.0083 v -5.368665 c 0,-0.29137 -0.098012,-0.526997 -0.2625169,-0.735355 z m 40.2750601,0.281637 0.696598,0.05219 -0.568442,0.567924 v 5.600691 l -0.529682,0.05633 v -5.764507 -0.111104 z m 1.801955,0.134875 0.529167,0.03979 v 5.101497 c 0,0.268754 0.08347,0.48994 0.225311,0.686263 l -0.572058,0.06098 c -0.112591,-0.219485 -0.18242,-0.465876 -0.18242,-0.747242 z"
         sodipodi:nodetypes="cccccccccccccccccccccccccccccccccssccccsscccsccsccccccccccccccccccccccccccccccccccccccccccsccsccccccccccccsccsc"
         inkscape:label="#back-sword-cutter" />
    </clipPath>
    <clipPath
       clipPathUnits="userSpaceOnUse"
       id="clipPath8237-3">
      <path
         id="path8239-6"
         style="color:#000000;font-style:normal;font-variant:normal;font-weight:normal;font-stretch:normal;font-size:medium;line-height:normal;font-family:sans-serif;font-variant-ligatures:normal;font-variant-position:normal;font-variant-caps:normal;font-variant-numeric:normal;font-variant-alternates:normal;font-variant-east-asian:normal;font-feature-settings:normal;font-variation-settings:normal;text-indent:0;text-align:start;text-decoration:none;text-decoration-line:none;text-decoration-style:solid;text-decoration-color:#000000;letter-spacing:normal;word-spacing:normal;text-transform:none;writing-mode:lr-tb;direction:ltr;text-orientation:mixed;dominant-baseline:auto;baseline-shift:baseline;text-anchor:start;white-space:normal;shape-padding:0;shape-margin:0;inline-size:0;clip-rule:nonzero;display:inline;overflow:visible;visibility:visible;isolation:auto;mix-blend-mode:normal;color-interpolation:sRGB;color-interpolation-filters:linearRGB;solid-color:#000000;solid-opacity:1;vector-effect:none;fill:#f6f6f6;fill-opacity:1;fill-rule:nonzero;stroke:none;stroke-width:0.264583;stroke-linecap:round;stroke-linejoin:miter;stroke-miterlimit:4;stroke-dasharray:none;stroke-dashoffset:0;stroke-opacity:1;color-rendering:auto;image-rendering:auto;shape-rendering:auto;text-rendering:auto;enable-background:accumulate;stop-color:#000000"
         d="m 530.52208,80.863209 v 4.510836 l 10.99105,-0.954981 0.0455,-0.248047 c 0.0413,-0.226232 0.0494,-0.501671 0.0615,-0.769977 h 0.0305 l -0.003,-0.33383 c -0.003,-0.367491 -0.0361,-0.70647 -0.0904,-1.001491 l -0.0455,-0.247531 z" />
    </clipPath>
    <clipPath
       clipPathUnits="userSpaceOnUse"
       id="clipPath4477-3">
      <path
         id="path4479-6"
         style="font-style:normal;font-variant:normal;font-weight:normal;font-stretch:normal;font-size:29.7759px;line-height:1.25;font-family:'Textura Libera';-inkscape-font-specification:'Textura Libera';text-align:center;letter-spacing:0px;word-spacing:0px;text-anchor:middle;fill:#f639f6;fill-opacity:1;stroke-width:0.58614"
         d="m 4711.0742,419.63477 v 0.0937 c 0,0 -1.0117,2.13003 -1.0117,4.14062 0,1.94842 0.9335,3.96826 0.9922,4.09375 h 0.035 13.1797 v -8.32812 z"
         sodipodi:nodetypes="ccsccccc" />
    </clipPath>
    <clipPath
       clipPathUnits="userSpaceOnUse"
       id="clipPath961">
      <rect
         style="fill:#e2e2e2;fill-opacity:1;stroke-width:0.0529167;stroke-linecap:round;paint-order:stroke markers fill;stop-color:#000000"
         id="rect963"
         width="44.09211"
         height="44.09211"
         x="2.7022264"
         y="387.30701" />
    </clipPath>
    <clipPath
       clipPathUnits="userSpaceOnUse"
       id="clipPath976">
      <rect
         style="fill:#e2e2e2;fill-opacity:1;stroke-width:0.0529167;stroke-linecap:round;paint-order:stroke markers fill;stop-color:#000000"
         id="rect978"
         width="44.09211"
         height="44.09211"
         x="65.274544"
         y="387.30701" />
    </clipPath>
  </defs>
  <sodipodi:namedview
     id="base"
     pagecolor="#ffffff"
     bordercolor="#666666"
     borderopacity="1.0"
     inkscape:pageopacity="0.0"
     inkscape:pageshadow="2"
     inkscape:zoom="0.30740406"
     inkscape:cx="164.89981"
     inkscape:cy="516.27171"
     inkscape:document-units="mm"
     inkscape:current-layer="layer1"
     inkscape:document-rotation="0"
     showgrid="false"
     showguides="true"
     inkscape:guide-bbox="true"
     inkscape:snap-global="true"
     inkscape:window-width="1916"
     inkscape:window-height="1035"
     inkscape:window-x="0"
     inkscape:window-y="43"
     inkscape:window-maximized="0" />
  <metadata
     id="metadata5">
    <rdf:RDF>
      <cc:Work
         rdf:about="">
        <dc:format>image/svg+xml</dc:format>
        <dc:type
           rdf:resource="http://purl.org/dc/dcmitype/StillImage" />
        <dc:title />
      </cc:Work>
    </rdf:RDF>
  </metadata>
  <g
     inkscape:label="Calque 1"
     inkscape:groupmode="layer"
     id="layer1"
     transform="translate(-14.815826,-309.17589)">
    <text
       xml:space="preserve"
       style="font-style:normal;font-variant:normal;font-weight:normal;font-stretch:normal;font-size:47.8487px;line-height:1.25;font-family:'Textura Libera';-inkscape-font-specification:'Textura Libera';letter-spacing:0px;word-spacing:0px;fill:#131313;fill-opacity:1;stroke-width:3.41774"
       x="29.920042"
       y="356.33511"
       id="text857"><tspan
         sodipodi:role="line"
         id="tspan855"
         x="29.920042"
         y="356.33511"
         style="font-style:normal;font-variant:normal;font-weight:normal;font-stretch:normal;font-family:'Textura Libera';-inkscape-font-specification:'Textura Libera';fill:#131313;fill-opacity:1;stroke-width:3.41774">riumphum</tspan></text>
    <g
       id="g1108"
       transform="matrix(0,-1.541863,1.541863,0,-502.18766,302.23367)"
       style="opacity:1">
      <g
         id="g1099">
        <path
           id="path1057"
           style="font-style:normal;font-variant:normal;font-weight:normal;font-stretch:normal;font-size:29.7759px;line-height:1.25;font-family:'Textura Libera';-inkscape-font-specification:'Textura Libera';text-align:center;letter-spacing:0px;word-spacing:0px;text-anchor:middle;fill:#131313;fill-opacity:1;stroke-width:0.155083"
           d="m -9.9012864,343.46986 h 3.1063 l 0.5953,0.59531 0.5953,-0.59531 0.5064,-0.50643 0.5953,-0.59531 -1.697,-1.69757 -0.5953,0.59583 h -3.1063 -2.7320996 -4.8307 c 0.2993,0.77941 0.3567,2.24436 1.1906,2.20348 h 0.1529 3.4872 z"
           sodipodi:nodetypes="ccccccccccccccc" />
        <path
           style="fill:#131313;fill-opacity:1;stroke:none;stroke-width:0.0529167;stroke-linecap:butt;stroke-linejoin:miter;stroke-miterlimit:4;stroke-dasharray:none;stroke-opacity:1"
           d="m -46.480208,344.03251 0.1054,-0.0238 c 9.064348,-0.63263 22.717363,-0.34912 27.455422,-0.34912 v 2e-5 l 1.4537,0.003 v -2.58908 l -1.4537,0.002 c -4.738059,-0.007 -18.391074,0.28341 -27.455422,-0.34931 l -0.1054,-0.0239 -1e-4,-8e-5 -4.57175,1.66513 z"
           id="path1069"
           sodipodi:nodetypes="cccccccccccc" />
        <path
           id="path1063"
           style="font-style:normal;font-variant:normal;font-weight:normal;font-stretch:normal;font-size:29.7759px;line-height:1.25;font-family:'Textura Libera';-inkscape-font-specification:'Textura Libera';text-align:center;letter-spacing:0px;word-spacing:0px;text-anchor:middle;fill:#131313;fill-opacity:1;stroke-width:0.155083"
           d="m -17.222186,335.31091 -0.5958,0.59531 -0.1427,0.14314 -0.11,0.11007 -0.2532,0.2527 v 5.2e-4 l -0.5959,0.59531 0.5065,0.50591 0.089,0.0894 v 3.46387 0.005 5.2e-4 0.005 c 0,0 0.1124,0.17829 0.1968,0.51573 0.032,0.12737 0.059,0.27887 0.075,0.45062 10e-4,0.0102 0,0.0186 0,0.0289 v 5.2e-4 c 0.01,0.0922 0.012,0.19042 0.012,0.29455 v 5.2e-4 c 0,0.10411 0,0.20237 -0.012,0.29456 v 5.1e-4 c -0.016,0.18446 -0.045,0.34471 -0.079,0.47956 -0.084,0.33758 -0.1968,0.51573 -0.1968,0.51573 v 0.005 5.2e-4 0.005 3.46387 l -0.089,0.0894 -0.5065,0.50591 0.5959,0.59532 v 5.1e-4 l 0.2532,0.2527 0.11,0.11007 0.1427,0.14314 0.5958,0.59532 0.5953,-0.59532 0.5064,-0.50642 0.5954,-0.59532 1.1911,-1.19114 -0.5064,-0.50591 -1.1912,1.19062 -0.089,-0.0889 v -3.65131 c 0,0 -0.2676,-0.56349 -0.2676,-1.09545 0,-0.53197 0.2676,-1.09546 0.2676,-1.09546 v -3.6864 l 0.089,-0.0889 1.1912,1.19062 0.5064,-0.50591 -1.1911,-1.19114 z"
           sodipodi:nodetypes="cccccccccccccsssssssscccccccccccccccccccccczccccccc" />
        <path
           style="color:#000000;font-style:normal;font-variant:normal;font-weight:normal;font-stretch:normal;font-size:29.7759px;line-height:1.25;font-family:'Textura Libera';-inkscape-font-specification:'Textura Libera';font-variant-ligatures:normal;font-variant-position:normal;font-variant-caps:normal;font-variant-numeric:normal;font-variant-alternates:normal;font-variant-east-asian:normal;font-feature-settings:normal;font-variation-settings:normal;text-indent:0;text-align:center;text-decoration:none;text-decoration-line:none;text-decoration-style:solid;text-decoration-color:#000000;letter-spacing:0px;word-spacing:0px;text-transform:none;writing-mode:lr-tb;direction:ltr;text-orientation:mixed;dominant-baseline:auto;baseline-shift:baseline;text-anchor:middle;white-space:normal;shape-padding:0;shape-margin:0;inline-size:0;clip-rule:nonzero;display:inline;overflow:visible;visibility:visible;opacity:0.27355;isolation:auto;mix-blend-mode:normal;color-interpolation:sRGB;color-interpolation-filters:linearRGB;solid-color:#000000;solid-opacity:1;vector-effect:none;fill:#e5e5e5;fill-opacity:1;fill-rule:nonzero;stroke:none;stroke-linecap:round;stroke-linejoin:miter;stroke-miterlimit:4;stroke-dasharray:none;stroke-dashoffset:0;stroke-opacity:1;filter:url(#filter4467);color-rendering:auto;image-rendering:auto;shape-rendering:auto;text-rendering:auto;enable-background:accumulate;stop-color:#000000"
           d="m 4711.5859,417.71484 a 1,1 0 0 0 -0.9277,0.56836 l -0.4863,1.01563 c 0,0 -1.1094,2.22426 -1.1094,4.57031 0,2.26782 1.0063,4.34742 1.0859,4.51758 l 0.01,0.0176 0.6289,1.21679 a 1,1 0 0 0 1.3477,0.42774 1,1 0 0 0 0.4277,-1.34766 l -0.6016,-1.16211 v -0.004 c -0.04,-0.0868 -0.8965,-2.03965 -0.8965,-3.66602 0,-1.67396 0.9128,-3.70614 0.9141,-3.70898 v -0.002 l 0.4843,-1.01172 a 1,1 0 0 0 -0.4707,-1.33398 1,1 0 0 0 -0.4043,-0.0977 z"
           id="path1065"
           transform="matrix(0.26458333,0,0,0.26458333,-1262.5964,230.23801)"
           clip-path="url(#clipPath4477)" />
        <path
           d="m -6.7951864,343.46963 0.5955,0.59551 0.5955,-0.59551 0.5062,-0.50619 0.5955,-0.59552 -1.6972,-1.69722 -0.5955,0.59552 c 0,0 0.5292,0.36754 0.5292,1.1017 0,0.73416 -0.5292,1.10171 -0.5292,1.10171 z"
           style="font-style:normal;font-variant:normal;font-weight:normal;font-stretch:normal;font-size:29.7759px;line-height:1.25;font-family:'Textura Libera';-inkscape-font-specification:'Textura Libera';text-align:center;letter-spacing:0px;word-spacing:0px;text-anchor:middle;fill:#292929;fill-opacity:1;stroke-width:0.155083"
           id="path1067"
           sodipodi:nodetypes="ccccccczc" />
      </g>
    </g>
    <text
       xml:space="preserve"
       style="font-style:normal;font-variant:normal;font-weight:normal;font-stretch:normal;font-size:7.90614px;line-height:1.25;font-family:'League Gothic';-inkscape-font-specification:'League Gothic';letter-spacing:0px;word-spacing:0px;fill:#131313;fill-opacity:1;stroke-width:0.0549038"
       x="31.721275"
       y="373.41376"
       id="text1112"><tspan
         sodipodi:role="line"
         x="31.721275"
         y="373.41376"
         style="font-style:normal;font-variant:normal;font-weight:normal;font-stretch:normal;font-family:'League Gothic';-inkscape-font-specification:'League Gothic';fill:#131313;fill-opacity:1;stroke-width:0.0549038"
         id="tspan1120">GESTIONNAIRE DE LUDOTHÈQUE EN PYTHON ET NCURSES POUR GNU/LINUX</tspan><tspan
         sodipodi:role="line"
         x="31.721275"
         y="383.29642"
         style="font-style:normal;font-variant:normal;font-weight:normal;font-stretch:normal;font-family:'League Gothic';-inkscape-font-specification:'League Gothic';fill:#131313;fill-opacity:1;stroke-width:0.0549038"
         id="tspan1114" /></text>
  </g>
</svg>
